<svg width="181" height="172" viewBox="0 0 181 172" fill="none" xmlns="http://www.w3.org/2000/svg">
<path d="M72.7059 100.706H75.5294V103.529H72.7059V100.706ZM69.8824 100.706H72.7059V103.529H69.8824V100.706ZM67.0588 100.706H69.8824V103.529H67.0588V100.706ZM67.0588 103.529H69.8824V106.353H67.0588V103.529ZM69.8824 103.529H72.7059V106.353H69.8824V103.529ZM67.0588 106.353H69.8824V109.176H67.0588V106.353ZM64.2353 106.353H67.0588V109.176H64.2353V106.353ZM69.8824 106.353H72.7059V109.176H69.8824V106.353ZM64.2353 109.176H67.0588V112H64.2353V109.176ZM61.4118 109.176H64.2353V112H61.4118V109.176ZM58.5882 109.176H61.4118V112H58.5882V109.176ZM55.7647 109.176H58.5882V112H55.7647V109.176ZM52.9412 109.176H55.7647V112H52.9412V109.176ZM50.1176 109.176H52.9412V112H50.1176V109.176ZM47.2941 109.176H50.1176V112H47.2941V109.176ZM47.2941 106.353H50.1176V109.176H47.2941V106.353ZM44.4706 106.353H47.2941V109.176H44.4706V106.353ZM41.6471 106.353H44.4706V109.176H41.6471V106.353ZM41.6471 103.529H44.4706V106.353H41.6471V103.529ZM44.4706 103.529H47.2941V106.353H44.4706V103.529ZM47.2941 103.529H50.1176V106.353H47.2941V103.529ZM50.1176 103.529H52.9412V106.353H50.1176V103.529ZM52.9412 103.529H55.7647V106.353H52.9412V103.529ZM55.7647 103.529H58.5882V106.353H55.7647V103.529ZM58.5882 103.529H61.4118V106.353H58.5882V103.529ZM61.4118 103.529H64.2353V106.353H61.4118V103.529ZM64.2353 103.529H67.0588V106.353H64.2353V103.529ZM61.4118 106.353H64.2353V109.176H61.4118V106.353ZM58.5882 106.353H61.4118V109.176H58.5882V106.353ZM55.7647 106.353H58.5882V109.176H55.7647V106.353ZM52.9412 106.353H55.7647V109.176H52.9412V106.353ZM50.1176 106.353H52.9412V109.176H50.1176V106.353ZM44.4706 100.706H47.2941V103.529H44.4706V100.706ZM41.6471 100.706H44.4706V103.529H41.6471V100.706ZM38.8235 100.706H41.6471V103.529H38.8235V100.706ZM44.4706 97.8824H47.2941V100.706H44.4706V97.8824ZM47.2941 97.8824H50.1176V100.706H47.2941V97.8824ZM50.1176 97.8824H52.9412V100.706H50.1176V97.8824ZM50.1176 100.706H52.9412V103.529H50.1176V100.706ZM47.2941 100.706H50.1176V103.529H47.2941V100.706ZM41.6471 97.8824H44.4706V100.706H41.6471V97.8824ZM41.6471 95.0588H44.4706V97.8824H41.6471V95.0588ZM38.8235 95.0588H41.6471V97.8824H38.8235V95.0588ZM38.8235 92.2353H41.6471V95.0588H38.8235V92.2353ZM38.8235 97.8824H41.6471V100.706H38.8235V97.8824ZM38.8235 89.4118H41.6471V92.2353H38.8235V89.4118ZM41.6471 89.4118H44.4706V92.2353H41.6471V89.4118ZM44.4706 89.4118H47.2941V92.2353H44.4706V89.4118ZM47.2941 89.4118H50.1176V92.2353H47.2941V89.4118ZM47.2941 92.2353H50.1176V95.0588H47.2941V92.2353ZM47.2941 95.0588H50.1176V97.8824H47.2941V95.0588ZM44.4706 92.2353H47.2941V95.0588H44.4706V92.2353ZM41.6471 92.2353H44.4706V95.0588H41.6471V92.2353ZM44.4706 95.0588H47.2941V97.8824H44.4706V95.0588ZM52.9412 100.706H55.7647V103.529H52.9412V100.706ZM55.7647 100.706H58.5882V103.529H55.7647V100.706ZM58.5882 100.706H61.4118V103.529H58.5882V100.706ZM61.4118 100.706H64.2353V103.529H61.4118V100.706ZM64.2353 100.706H67.0588V103.529H64.2353V100.706ZM64.2353 97.8824H67.0588V100.706H64.2353V97.8824ZM61.4118 97.8824H64.2353V100.706H61.4118V97.8824ZM67.0588 97.8824H69.8824V100.706H67.0588V97.8824ZM69.8824 97.8824H72.7059V100.706H69.8824V97.8824ZM69.8824 95.0588H72.7059V97.8824H69.8824V95.0588ZM72.7059 95.0588H75.5294V97.8824H72.7059V95.0588ZM72.7059 92.2353H75.5294V95.0588H72.7059V92.2353ZM72.7059 97.8824H75.5294V100.706H72.7059V97.8824ZM64.2353 92.2353H67.0588V95.0588H64.2353V92.2353ZM64.2353 95.0588H67.0588V97.8824H64.2353V95.0588ZM67.0588 95.0588H69.8824V97.8824H67.0588V95.0588ZM67.0588 92.2353H69.8824V95.0588H67.0588V92.2353ZM69.8824 92.2353H72.7059V95.0588H69.8824V92.2353ZM72.7059 72.4706H75.5294V75.2941H72.7059V72.4706ZM72.7059 69.6471H75.5294V72.4706H72.7059V69.6471ZM72.7059 66.8235H75.5294V69.6471H72.7059V66.8235ZM72.7059 64H75.5294V66.8235H72.7059V64ZM69.8824 64H72.7059V66.8235H69.8824V64ZM69.8824 61.1765H72.7059V64H69.8824V61.1765ZM69.8824 58.3529H72.7059V61.1765H69.8824V58.3529ZM67.0588 58.3529H69.8824V61.1765H67.0588V58.3529ZM64.2353 58.3529H67.0588V61.1765H64.2353V58.3529ZM67.0588 72.4706H69.8824V75.2941H67.0588V72.4706ZM67.0588 69.6471H69.8824V72.4706H67.0588V69.6471ZM69.8824 69.6471H72.7059V72.4706H69.8824V69.6471ZM69.8824 66.8235H72.7059V69.6471H69.8824V66.8235ZM69.8824 72.4706H72.7059V75.2941H69.8824V72.4706ZM64.2353 72.4706H67.0588V75.2941H64.2353V72.4706ZM67.0588 66.8235H69.8824V69.6471H67.0588V66.8235ZM64.2353 66.8235H67.0588V69.6471H64.2353V66.8235ZM64.2353 69.6471H67.0588V72.4706H64.2353V69.6471ZM61.4118 66.8235H64.2353V69.6471H61.4118V66.8235ZM61.4118 64H64.2353V66.8235H61.4118V64ZM64.2353 61.1765H67.0588V64H64.2353V61.1765ZM67.0588 61.1765H69.8824V64H67.0588V61.1765ZM67.0588 64H69.8824V66.8235H67.0588V64ZM64.2353 64H67.0588V66.8235H64.2353V64ZM61.4118 61.1765H64.2353V64H61.4118V61.1765ZM61.4118 58.3529H64.2353V61.1765H61.4118V58.3529ZM61.4118 55.5294H64.2353V58.3529H61.4118V55.5294ZM64.2353 55.5294H67.0588V58.3529H64.2353V55.5294ZM58.5882 55.5294H61.4118V58.3529H58.5882V55.5294ZM55.7647 55.5294H58.5882V58.3529H55.7647V55.5294ZM52.9412 55.5294H55.7647V58.3529H52.9412V55.5294ZM50.1176 55.5294H52.9412V58.3529H50.1176V55.5294ZM50.1176 58.3529H52.9412V61.1765H50.1176V58.3529ZM47.2941 58.3529H50.1176V61.1765H47.2941V58.3529ZM47.2941 55.5294H50.1176V58.3529H47.2941V55.5294ZM44.4706 58.3529H47.2941V61.1765H44.4706V58.3529ZM41.6471 58.3529H44.4706V61.1765H41.6471V58.3529ZM41.6471 61.1765H44.4706V64H41.6471V61.1765ZM41.6471 64H44.4706V66.8235H41.6471V64ZM38.8235 64H41.6471V66.8235H38.8235V64ZM38.8235 66.8235H41.6471V69.6471H38.8235V66.8235ZM41.6471 66.8235H44.4706V69.6471H41.6471V66.8235ZM44.4706 66.8235H47.2941V69.6471H44.4706V66.8235ZM47.2941 66.8235H50.1176V69.6471H47.2941V66.8235ZM50.1176 66.8235H52.9412V69.6471H50.1176V66.8235ZM50.1176 64H52.9412V66.8235H50.1176V64ZM52.9412 64H55.7647V66.8235H52.9412V64ZM55.7647 64H58.5882V66.8235H55.7647V64ZM58.5882 64H61.4118V66.8235H58.5882V64ZM58.5882 58.3529H61.4118V61.1765H58.5882V58.3529ZM58.5882 61.1765H61.4118V64H58.5882V61.1765ZM55.7647 61.1765H58.5882V64H55.7647V61.1765ZM52.9412 61.1765H55.7647V64H52.9412V61.1765ZM55.7647 58.3529H58.5882V61.1765H55.7647V58.3529ZM52.9412 58.3529H55.7647V61.1765H52.9412V58.3529ZM50.1176 61.1765H52.9412V64H50.1176V61.1765ZM47.2941 61.1765H50.1176V64H47.2941V61.1765ZM47.2941 64H50.1176V66.8235H47.2941V64ZM44.4706 64H47.2941V66.8235H44.4706V64ZM44.4706 61.1765H47.2941V64H44.4706V61.1765ZM44.4706 69.6471H47.2941V72.4706H44.4706V69.6471ZM44.4706 72.4706H47.2941V75.2941H44.4706V72.4706ZM44.4706 75.2941H47.2941V78.1176H44.4706V75.2941ZM44.4706 78.1176H47.2941V80.9412H44.4706V78.1176ZM47.2941 78.1176H50.1176V80.9412H47.2941V78.1176ZM47.2941 80.9412H50.1176V83.7647H47.2941V80.9412ZM47.2941 75.2941H50.1176V78.1176H47.2941V75.2941ZM47.2941 72.4706H50.1176V75.2941H47.2941V72.4706ZM47.2941 69.6471H50.1176V72.4706H47.2941V69.6471ZM47.2941 83.7647H50.1176V86.5882H47.2941V83.7647ZM47.2941 86.5882H50.1176V89.4118H47.2941V86.5882ZM44.4706 86.5882H47.2941V89.4118H44.4706V86.5882ZM41.6471 86.5882H44.4706V89.4118H41.6471V86.5882ZM38.8235 83.7647H41.6471V86.5882H38.8235V83.7647ZM38.8235 86.5882H41.6471V89.4118H38.8235V86.5882ZM38.8235 80.9412H41.6471V83.7647H38.8235V80.9412ZM38.8235 78.1176H41.6471V80.9412H38.8235V78.1176ZM38.8235 75.2941H41.6471V78.1176H38.8235V75.2941ZM38.8235 72.4706H41.6471V75.2941H38.8235V72.4706ZM38.8235 69.6471H41.6471V72.4706H38.8235V69.6471ZM41.6471 72.4706H44.4706V75.2941H41.6471V72.4706ZM41.6471 75.2941H44.4706V78.1176H41.6471V75.2941ZM41.6471 78.1176H44.4706V80.9412H41.6471V78.1176ZM41.6471 80.9412H44.4706V83.7647H41.6471V80.9412ZM41.6471 83.7647H44.4706V86.5882H41.6471V83.7647ZM44.4706 83.7647H47.2941V86.5882H44.4706V83.7647ZM44.4706 80.9412H47.2941V83.7647H44.4706V80.9412ZM41.6471 69.6471H44.4706V72.4706H41.6471V69.6471ZM84.011 69.6471H86.8346V72.4706H84.011V69.6471ZM86.8346 69.6471H89.6581V72.4706H86.8346V69.6471ZM89.6581 69.6471H92.4816V72.4706H89.6581V69.6471ZM92.4816 69.6471H95.3051V72.4706H92.4816V69.6471ZM92.4816 72.4706H95.3051V75.2941H92.4816V72.4706ZM92.4816 75.2941H95.3051V78.1176H92.4816V75.2941ZM92.4816 78.1176H95.3051V80.9412H92.4816V78.1176ZM92.4816 80.9412H95.3051V83.7647H92.4816V80.9412ZM92.4816 83.7647H95.3051V86.5882H92.4816V83.7647ZM92.4816 86.5882H95.3051V89.4118H92.4816V86.5882ZM92.4816 89.4118H95.3051V92.2353H92.4816V89.4118ZM92.4816 92.2353H95.3051V95.0588H92.4816V92.2353ZM92.4816 95.0588H95.3051V97.8824H92.4816V95.0588ZM89.6581 95.0588H92.4816V97.8824H89.6581V95.0588ZM86.8346 95.0588H89.6581V97.8824H86.8346V95.0588ZM84.011 95.0588H86.8346V97.8824H84.011V95.0588ZM84.011 92.2353H86.8346V95.0588H84.011V92.2353ZM84.011 89.4118H86.8346V92.2353H84.011V89.4118ZM84.011 86.5882H86.8346V89.4118H84.011V86.5882ZM84.011 83.7647H86.8346V86.5882H84.011V83.7647ZM84.011 80.9412H86.8346V83.7647H84.011V80.9412ZM84.011 78.1176H86.8346V80.9412H84.011V78.1176ZM84.011 75.2941H86.8346V78.1176H84.011V75.2941ZM84.011 72.4706H86.8346V75.2941H84.011V72.4706ZM86.8346 72.4706H89.6581V75.2941H86.8346V72.4706ZM89.6581 72.4706H92.4816V75.2941H89.6581V72.4706ZM89.6581 75.2941H92.4816V78.1176H89.6581V75.2941ZM89.6581 78.1176H92.4816V80.9412H89.6581V78.1176ZM89.6581 80.9412H92.4816V83.7647H89.6581V80.9412ZM89.6581 83.7647H92.4816V86.5882H89.6581V83.7647ZM89.6581 86.5882H92.4816V89.4118H89.6581V86.5882ZM86.8346 89.4118H89.6581V92.2353H86.8346V89.4118ZM86.8346 92.2353H89.6581V95.0588H86.8346V92.2353ZM86.8346 86.5882H89.6581V89.4118H86.8346V86.5882ZM86.8346 83.7647H89.6581V86.5882H86.8346V83.7647ZM86.8346 80.9412H89.6581V83.7647H86.8346V80.9412ZM86.8346 78.1176H89.6581V80.9412H86.8346V78.1176ZM86.8346 75.2941H89.6581V78.1176H86.8346V75.2941ZM89.6581 89.4118H92.4816V92.2353H89.6581V89.4118ZM89.6581 92.2353H92.4816V95.0588H89.6581V92.2353ZM109.423 69.6471H112.246V72.4706H109.423V69.6471ZM112.246 69.6471H115.07V72.4706H112.246V69.6471ZM115.07 69.6471H117.893V72.4706H115.07V69.6471ZM117.893 69.6471H120.717V72.4706H117.893V69.6471ZM117.893 72.4706H120.717V75.2941H117.893V72.4706ZM117.893 75.2941H120.717V78.1176H117.893V75.2941ZM117.893 78.1176H120.717V80.9412H117.893V78.1176ZM117.893 80.9412H120.717V83.7647H117.893V80.9412ZM117.893 83.7647H120.717V86.5882H117.893V83.7647ZM117.893 86.5882H120.717V89.4118H117.893V86.5882ZM117.893 89.4118H120.717V92.2353H117.893V89.4118ZM117.893 92.2353H120.717V95.0588H117.893V92.2353ZM117.893 95.0588H120.717V97.8824H117.893V95.0588ZM115.07 92.2353H117.893V95.0588H115.07V92.2353ZM112.246 92.2353H115.07V95.0588H112.246V92.2353ZM112.246 95.0588H115.07V97.8824H112.246V95.0588ZM109.423 92.2353H112.246V95.0588H109.423V92.2353ZM109.423 89.4118H112.246V92.2353H109.423V89.4118ZM109.423 86.5882H112.246V89.4118H109.423V86.5882ZM109.423 83.7647H112.246V86.5882H109.423V83.7647ZM109.423 80.9412H112.246V83.7647H109.423V80.9412ZM109.423 78.1176H112.246V80.9412H109.423V78.1176ZM109.423 75.2941H112.246V78.1176H109.423V75.2941ZM109.423 72.4706H112.246V75.2941H109.423V72.4706ZM112.246 72.4706H115.07V75.2941H112.246V72.4706ZM115.07 72.4706H117.893V75.2941H115.07V72.4706ZM115.07 75.2941H117.893V78.1176H115.07V75.2941ZM115.07 78.1176H117.893V80.9412H115.07V78.1176ZM115.07 80.9412H117.893V83.7647H115.07V80.9412ZM115.07 83.7647H117.893V86.5882H115.07V83.7647ZM115.07 86.5882H117.893V89.4118H115.07V86.5882ZM115.07 89.4118H117.893V92.2353H115.07V89.4118ZM112.246 89.4118H115.07V92.2353H112.246V89.4118ZM112.246 86.5882H115.07V89.4118H112.246V86.5882ZM112.246 83.7647H115.07V86.5882H112.246V83.7647ZM112.246 80.9412H115.07V83.7647H112.246V80.9412ZM112.246 78.1176H115.07V80.9412H112.246V78.1176ZM112.246 75.2941H115.07V78.1176H112.246V75.2941ZM106.599 95.0588H109.423V97.8824H106.599V95.0588ZM109.423 95.0588H112.246V97.8824H109.423V95.0588ZM112.246 97.8824H115.07V100.706H112.246V97.8824ZM115.07 97.8824H117.893V100.706H115.07V97.8824ZM115.07 95.0588H117.893V97.8824H115.07V95.0588ZM109.423 97.8824H112.246V100.706H109.423V97.8824ZM109.423 100.706H112.246V103.529H109.423V100.706ZM112.246 100.706H115.07V103.529H112.246V100.706ZM109.423 103.529H112.246V106.353H109.423V103.529ZM106.599 103.529H109.423V106.353H106.599V103.529ZM106.599 106.353H109.423V109.176H106.599V106.353ZM103.776 106.353H106.599V109.176H103.776V106.353ZM103.776 109.176H106.599V112H103.776V109.176ZM100.952 109.176H103.776V112H100.952V109.176ZM100.952 112H103.776V114.824H100.952V112ZM98.1287 112H100.952V114.824H98.1287V112ZM98.1287 114.824H100.952V117.647H98.1287V114.824ZM95.3051 114.824H98.1287V117.647H95.3051V114.824ZM95.3051 117.647H98.1287V120.471H95.3051V117.647ZM92.4816 117.647H95.3051V120.471H92.4816V117.647ZM92.4816 120.471H95.3051V123.294H92.4816V120.471ZM89.6581 120.471H92.4816V123.294H89.6581V120.471ZM89.6581 123.294H92.4816V126.118H89.6581V123.294ZM86.8346 123.294H89.6581V126.118H86.8346V123.294ZM84.011 123.294H86.8346V126.118H84.011V123.294ZM84.011 120.471H86.8346V123.294H84.011V120.471ZM84.011 117.647H86.8346V120.471H84.011V117.647ZM86.8346 117.647H89.6581V120.471H86.8346V117.647ZM86.8346 120.471H89.6581V123.294H86.8346V120.471ZM89.6581 117.647H92.4816V120.471H89.6581V117.647ZM86.8346 114.824H89.6581V117.647H86.8346V114.824ZM89.6581 114.824H92.4816V117.647H89.6581V114.824ZM89.6581 112H92.4816V114.824H89.6581V112ZM92.4816 112H95.3051V114.824H92.4816V112ZM95.3051 112H98.1287V114.824H95.3051V112ZM95.3051 109.176H98.1287V112H95.3051V109.176ZM92.4816 109.176H95.3051V112H92.4816V109.176ZM92.4816 114.824H95.3051V117.647H92.4816V114.824ZM98.1287 106.353H100.952V109.176H98.1287V106.353ZM95.3051 106.353H98.1287V109.176H95.3051V106.353ZM98.1287 109.176H100.952V112H98.1287V109.176ZM100.952 106.353H103.776V109.176H100.952V106.353ZM100.952 103.529H103.776V106.353H100.952V103.529ZM103.776 103.529H106.599V106.353H103.776V103.529ZM103.776 100.706H106.599V103.529H103.776V100.706ZM106.599 100.706H109.423V103.529H106.599V100.706ZM106.599 97.8824H109.423V100.706H106.599V97.8824ZM103.776 97.8824H106.599V100.706H103.776V97.8824ZM100.952 100.706H103.776V103.529H100.952V100.706ZM98.1287 100.706H100.952V103.529H98.1287V100.706ZM98.1287 97.8824H100.952V100.706H98.1287V97.8824ZM95.3051 100.706H98.1287V103.529H95.3051V100.706ZM95.3051 97.8824H98.1287V100.706H95.3051V97.8824ZM95.3051 95.0588H98.1287V97.8824H95.3051V95.0588ZM92.4816 97.8824H95.3051V100.706H92.4816V97.8824ZM89.6581 97.8824H92.4816V100.706H89.6581V97.8824ZM86.8346 97.8824H89.6581V100.706H86.8346V97.8824ZM92.4816 100.706H95.3051V103.529H92.4816V100.706ZM89.6581 100.706H92.4816V103.529H89.6581V100.706ZM92.4816 103.529H95.3051V106.353H92.4816V103.529ZM95.3051 103.529H98.1287V106.353H95.3051V103.529ZM98.1287 103.529H100.952V106.353H98.1287V103.529ZM129.199 109.176H132.022V112H129.199V109.176ZM132.022 109.176H134.846V112H132.022V109.176ZM134.846 109.176H137.669V112H134.846V109.176ZM137.669 109.176H140.493V112H137.669V109.176ZM137.669 106.353H140.493V109.176H137.669V106.353ZM134.846 106.353H137.669V109.176H134.846V106.353ZM132.022 106.353H134.846V109.176H132.022V106.353ZM129.199 106.353H132.022V109.176H129.199V106.353ZM129.199 103.529H132.022V106.353H129.199V103.529ZM129.199 100.706H132.022V103.529H129.199V100.706ZM129.199 97.8824H132.022V100.706H129.199V97.8824ZM129.199 95.0588H132.022V97.8824H129.199V95.0588ZM129.199 92.2353H132.022V95.0588H129.199V92.2353ZM129.199 89.4118H132.022V92.2353H129.199V89.4118ZM129.199 86.5882H132.022V89.4118H129.199V86.5882ZM132.022 86.5882H134.846V89.4118H132.022V86.5882ZM132.022 83.7647H134.846V86.5882H132.022V83.7647ZM132.022 80.9412H134.846V83.7647H132.022V80.9412ZM134.846 80.9412H137.669V83.7647H134.846V80.9412ZM134.846 83.7647H137.669V86.5882H134.846V83.7647ZM137.669 83.7647H140.493V86.5882H137.669V83.7647ZM137.669 86.5882H140.493V89.4118H137.669V86.5882ZM137.669 89.4118H140.493V92.2353H137.669V89.4118ZM137.669 92.2353H140.493V95.0588H137.669V92.2353ZM137.669 95.0588H140.493V97.8824H137.669V95.0588ZM137.669 97.8824H140.493V100.706H137.669V97.8824ZM137.669 100.706H140.493V103.529H137.669V100.706ZM137.669 103.529H140.493V106.353H137.669V103.529ZM134.846 103.529H137.669V106.353H134.846V103.529ZM134.846 100.706H137.669V103.529H134.846V100.706ZM134.846 97.8824H137.669V100.706H134.846V97.8824ZM134.846 95.0588H137.669V97.8824H134.846V95.0588ZM134.846 92.2353H137.669V95.0588H134.846V92.2353ZM134.846 89.4118H137.669V92.2353H134.846V89.4118ZM134.846 86.5882H137.669V89.4118H134.846V86.5882ZM132.022 89.4118H134.846V92.2353H132.022V89.4118ZM132.022 92.2353H134.846V95.0588H132.022V92.2353ZM132.022 95.0588H134.846V97.8824H132.022V95.0588ZM132.022 97.8824H134.846V100.706H132.022V97.8824ZM132.022 100.706H134.846V103.529H132.022V100.706ZM132.022 103.529H134.846V106.353H132.022V103.529ZM129.199 55.5294H132.022V58.3529H129.199V55.5294ZM129.199 58.3529H132.022V61.1765H129.199V58.3529ZM129.199 64H132.022V66.8235H129.199V64ZM129.199 66.8235H132.022V69.6471H129.199V66.8235ZM129.199 69.6471H132.022V72.4706H129.199V69.6471ZM129.199 72.4706H132.022V75.2941H129.199V72.4706ZM129.199 75.2941H132.022V78.1176H129.199V75.2941ZM129.199 78.1176H132.022V80.9412H129.199V78.1176ZM129.199 80.9412H132.022V83.7647H129.199V80.9412ZM129.199 83.7647H132.022V86.5882H129.199V83.7647ZM132.022 72.4706H134.846V75.2941H132.022V72.4706ZM132.022 69.6471H134.846V72.4706H132.022V69.6471ZM132.022 66.8235H134.846V69.6471H132.022V66.8235ZM132.022 64H134.846V66.8235H132.022V64ZM132.022 61.1765H134.846V64H132.022V61.1765ZM129.199 61.1765H132.022V64H129.199V61.1765ZM132.022 55.5294H134.846V58.3529H132.022V55.5294ZM134.846 55.5294H137.669V58.3529H134.846V55.5294ZM134.846 58.3529H137.669V61.1765H134.846V58.3529ZM137.669 61.1765H140.493V64H137.669V61.1765ZM137.669 58.3529H140.493V61.1765H137.669V58.3529ZM137.669 55.5294H140.493V58.3529H137.669V55.5294ZM137.669 64H140.493V66.8235H137.669V64ZM137.669 66.8235H140.493V69.6471H137.669V66.8235ZM137.669 69.6471H140.493V72.4706H137.669V69.6471ZM137.669 72.4706H140.493V75.2941H137.669V72.4706ZM137.669 75.2941H140.493V78.1176H137.669V75.2941ZM137.669 78.1176H140.493V80.9412H137.669V78.1176ZM137.669 80.9412H140.493V83.7647H137.669V80.9412ZM134.846 78.1176H137.669V80.9412H134.846V78.1176ZM134.846 75.2941H137.669V78.1176H134.846V75.2941ZM134.846 72.4706H137.669V75.2941H134.846V72.4706ZM132.022 75.2941H134.846V78.1176H132.022V75.2941ZM132.022 78.1176H134.846V80.9412H132.022V78.1176ZM134.846 69.6471H137.669V72.4706H134.846V69.6471ZM134.846 61.1765H137.669V64H134.846V61.1765ZM134.846 64H137.669V66.8235H134.846V64ZM134.846 66.8235H137.669V69.6471H134.846V66.8235ZM132.022 58.3529H134.846V61.1765H132.022V58.3529Z" fill="#F0520E"/>
<path d="M180.5 86C180.5 133.197 140.23 171.5 90.5 171.5C40.77 171.5 0.5 133.197 0.5 86C0.5 38.8034 40.77 0.5 90.5 0.5C140.23 0.5 180.5 38.8034 180.5 86Z" stroke="#F0520E"/>
</svg>
